# xmcd CD database file
#
# Track frame offsets:
#	150
#	22631
#	54425
#	76431
#	100995
#	126708
#	147752
#	175254
#
# Disc length: 2683 seconds
#
# Revision: 0
# Processed by: cddbd v1.5.2PL0 Copyright (c) Steve Scherf et al.
# Submitted via: CDex 1.51
#
DISCID=640a7908
DTITLE=Bob Kaufman - Worlds together
DYEAR=2007
DGENRE=Jazz
TTITLE0=Think did
TTITLE1=Mr. MB
TTITLE2=Domolian mode
TTITLE3=Wrong
TTITLE4=Beak
TTITLE5=Tha last punks
TTITLE6=Nilny
TTITLE7=Hog tied
EXTD=YEAR: 2007
EXTT0=
EXTT1=
EXTT2=
EXTT3=
EXTT4=
EXTT5=
EXTT6=
EXTT7=
PLAYORDER=
